<svg width="109" height="32" viewBox="0 0 109 32" fill="none" xmlns="http://www.w3.org/2000/svg">
<path d="M107.34 28.2225C107.34 28.6252 107.26 29.024 107.106 29.396C106.952 29.7681 106.726 30.106 106.441 30.3906C106.156 30.6753 105.817 30.9009 105.445 31.0547C105.073 31.2086 104.674 31.2875 104.271 31.2871H3.84995C3.03603 31.288 2.2551 30.9656 1.6789 30.3909C1.10269 29.8162 0.778404 29.0362 0.777344 28.2225V3.78343C0.778404 2.96936 1.10257 2.18899 1.67865 1.61365C2.25474 1.03832 3.03566 0.715055 3.84995 0.714844H104.27C104.673 0.714844 105.072 0.794221 105.445 0.948442C105.817 1.10266 106.155 1.32871 106.44 1.61366C106.725 1.89862 106.951 2.2369 107.105 2.6092C107.26 2.98149 107.339 3.3805 107.339 3.78343L107.34 28.2225Z" fill="white"/>
<path d="M104.27 31.9993H3.84938C2.84673 31.9991 1.88511 31.6012 1.17553 30.893C0.465946 30.1848 0.0663609 29.2241 0.0644531 28.2217L0.0644531 3.78348C0.0659364 2.78059 0.465258 1.81925 1.17482 1.11032C1.88438 0.401404 2.84623 0.0027996 3.84938 0.00195312L104.27 0.00195313C105.273 0.00322196 106.234 0.401962 106.944 1.11079C107.653 1.81962 108.053 2.78072 108.055 3.78348V28.2217C108.056 30.3053 106.355 31.9993 104.27 31.9993Z" fill="#A6A6A6"/>
<path d="M107.34 28.2225C107.34 28.6252 107.26 29.024 107.106 29.396C106.952 29.7681 106.726 30.106 106.441 30.3906C106.156 30.6753 105.817 30.9009 105.445 31.0547C105.073 31.2086 104.674 31.2875 104.271 31.2871H3.84995C3.03603 31.288 2.2551 30.9656 1.6789 30.3909C1.10269 29.8162 0.778404 29.0362 0.777344 28.2225V3.78343C0.778404 2.96936 1.10257 2.18899 1.67865 1.61365C2.25474 1.03832 3.03566 0.715055 3.84995 0.714844H104.27C104.673 0.714844 105.072 0.794221 105.445 0.948442C105.817 1.10266 106.155 1.32871 106.44 1.61366C106.725 1.89862 106.951 2.2369 107.105 2.6092C107.26 2.98149 107.339 3.3805 107.339 3.78343L107.34 28.2225Z" fill="black"/>
<path d="M24.1779 15.8322C24.1547 13.2533 26.2901 11.9987 26.3877 11.9403C25.1784 10.1776 23.3039 9.93671 22.6452 9.91751C21.0709 9.75187 19.5438 10.8593 18.7419 10.8593C17.9239 10.8593 16.6889 9.93351 15.3579 9.96071C13.6451 9.98712 12.0428 10.9785 11.164 12.518C9.35038 15.657 10.703 20.2699 12.4406 22.8072C13.3098 24.0506 14.3254 25.4373 15.6548 25.3885C16.9554 25.3356 17.4413 24.5603 19.0108 24.5603C20.5659 24.5603 21.0221 25.3885 22.3779 25.3573C23.7737 25.3356 24.6525 24.109 25.4913 22.8552C26.4958 21.4317 26.8992 20.0282 26.9152 19.9562C26.8832 19.945 24.2051 18.9224 24.1779 15.8322ZM21.6168 8.24839C22.3163 7.37382 22.7949 6.18399 22.662 4.97656C21.6496 5.02137 20.3834 5.6767 19.6543 6.53206C19.0092 7.2858 18.4329 8.52124 18.5818 9.68306C19.7191 9.76788 20.8868 9.10935 21.6168 8.24839Z" fill="white"/>
<path d="M104.271 0.00195313H50.4824L71.5505 31.9993H104.271C105.274 31.9984 106.236 31.6 106.945 30.8915C107.655 30.1829 108.054 29.2219 108.056 28.2193V3.78348C108.054 2.78066 107.655 1.81943 106.945 1.11056C106.236 0.401683 105.274 0.00301086 104.271 0.00195312V0.00195313Z" fill="url(#paint0_linear)"/>
<path d="M43.0156 25.2104H41.1979L40.2023 22.0826H36.7415L35.793 25.2104H34.0234L37.453 14.5619H39.5708L43.0156 25.2104ZM39.9021 20.7703L39.0017 17.9898C38.9065 17.7057 38.7272 17.0368 38.4647 15.9838H38.4327C38.327 16.4367 38.1581 17.1056 37.9268 17.9898L37.0416 20.7703H39.9021ZM51.818 21.2768C51.818 22.5827 51.4634 23.6149 50.7535 24.3726C50.118 25.0471 49.328 25.384 48.386 25.384C47.3687 25.384 46.6372 25.0215 46.193 24.295V28.3238H44.4866V20.0558C44.4866 19.2356 44.465 18.3947 44.4234 17.5321H45.9241L46.0193 18.7491H46.0513C46.6204 17.8322 47.484 17.3737 48.6429 17.3737C49.5489 17.3737 50.3053 17.7313 50.9104 18.4475C51.5146 19.1652 51.818 20.1078 51.818 21.2768ZM50.0796 21.3392C50.0796 20.5919 49.9115 19.9758 49.5738 19.4901C49.2048 18.9852 48.7094 18.7323 48.0883 18.7323C47.6673 18.7323 47.2847 18.8732 46.9429 19.1508C46.6004 19.4309 46.3763 19.7965 46.2714 20.2494C46.2246 20.4188 46.198 20.5931 46.1922 20.7687V22.0498C46.1922 22.6075 46.3635 23.0788 46.706 23.4644C47.0486 23.8485 47.4936 24.0413 48.041 24.0413C48.6837 24.0413 49.184 23.7925 49.5417 23.2988C49.9003 22.8035 50.0796 22.1506 50.0796 21.3392ZM60.6516 21.2768C60.6516 22.5827 60.2971 23.6149 59.5871 24.3726C58.9508 25.0471 58.1617 25.384 57.2188 25.384C56.2016 25.384 55.47 25.0215 55.0258 24.295V28.3238H53.3195V20.0558C53.3195 19.2356 53.2979 18.3947 53.2562 17.5321H54.7569L54.8522 18.7491H54.8842C55.4524 17.8322 56.316 17.3737 57.4758 17.3737C58.381 17.3737 59.1373 17.7313 59.744 18.4475C60.3475 19.1652 60.6516 20.1078 60.6516 21.2768ZM58.9124 21.3392C58.9124 20.5919 58.7435 19.9758 58.4058 19.4901C58.0368 18.9852 57.543 18.7323 56.9219 18.7323C56.5009 18.7323 56.1183 18.8732 55.775 19.1508C55.4324 19.4309 55.2091 19.7965 55.1043 20.2494C55.0523 20.4607 55.0242 20.6327 55.0242 20.7687V22.0498C55.0242 22.6075 55.1963 23.0788 55.5373 23.4644C55.8798 23.8477 56.3248 24.0413 56.8739 24.0413C57.5174 24.0413 58.0176 23.7925 58.3746 23.2988C58.7331 22.8035 58.9124 22.1506 58.9124 21.3392ZM70.5281 22.2234C70.5281 23.13 70.2112 23.8669 69.5813 24.4358C68.8882 25.0567 67.9205 25.368 66.68 25.368C65.5339 25.368 64.615 25.1472 63.9219 24.7047L64.3165 23.2828C65.0648 23.7261 65.8868 23.9469 66.7816 23.9469C67.4251 23.9469 67.9253 23.8013 68.2823 23.5124C68.6401 23.2228 68.821 22.8355 68.821 22.3522C68.821 21.9193 68.6713 21.5569 68.3775 21.2616C68.0822 20.9672 67.594 20.6927 66.9081 20.4406C65.0432 19.7453 64.11 18.7283 64.11 17.3905C64.11 16.5167 64.4397 15.8014 65.0976 15.2421C65.7555 14.6835 66.628 14.4043 67.7132 14.4043C68.6825 14.4043 69.4901 14.5731 70.1312 14.91L69.703 16.3007C69.0995 15.9742 68.4184 15.811 67.6564 15.811C67.0545 15.811 66.5823 15.959 66.2446 16.2534C65.9604 16.5167 65.8164 16.8376 65.8164 17.2184C65.8164 17.6385 65.9805 17.9874 66.307 18.261C66.5903 18.5131 67.1074 18.7875 67.8549 19.082C68.7721 19.4517 69.446 19.8821 69.8774 20.3766C70.312 20.8711 70.5281 21.4881 70.5281 22.2234ZM76.1843 18.8123H74.3035V22.5403C74.3035 23.4884 74.6348 23.9613 75.2991 23.9613C75.6041 23.9613 75.857 23.9357 76.0571 23.8821L76.1043 25.1776C75.7681 25.3032 75.3255 25.3664 74.7773 25.3664C74.1034 25.3664 73.5767 25.1608 73.1966 24.7495C72.818 24.3382 72.6275 23.6493 72.6275 22.6795V18.8091H71.507V17.5289H72.6275V16.123L74.3035 15.6173V17.5289H76.1843V18.8123ZM84.6538 21.308C84.6538 22.4882 84.316 23.4572 83.6421 24.215C82.937 24.9951 81.999 25.384 80.8296 25.384C79.7011 25.384 78.8039 25.0103 78.1348 24.2638C77.4657 23.5156 77.1312 22.5731 77.1312 21.436C77.1312 20.2462 77.4769 19.2716 78.166 18.5139C78.8567 17.7553 79.7868 17.3761 80.9561 17.3761C82.083 17.3761 82.9882 17.7505 83.6733 18.4979C84.328 19.2228 84.6538 20.159 84.6538 21.308ZM82.885 21.3472C82.885 20.6439 82.7329 20.0406 82.428 19.5357C82.0702 18.926 81.558 18.6211 80.8945 18.6211C80.211 18.6211 79.6867 18.926 79.3298 19.5357C79.024 20.0406 78.8719 20.6543 78.8719 21.3792C78.8719 22.0834 79.024 22.6883 79.3298 23.1916C79.6987 23.8013 80.2134 24.1062 80.8801 24.1062C81.5324 24.1062 82.0438 23.7949 82.4136 23.1764C82.7273 22.6595 82.885 22.0522 82.885 21.3472ZM90.2027 19.0324C90.0253 19.0003 89.8452 18.9845 89.6649 18.9852C89.0646 18.9852 88.6004 19.2108 88.2738 19.6653C87.9905 20.0654 87.8481 20.5711 87.8481 21.1816V25.2104H86.1417V19.9502C86.1432 19.1441 86.1267 18.3382 86.0921 17.5329H87.5783L87.6408 19.002H87.688C87.8689 18.4971 88.1522 18.0898 88.5412 17.7849C88.8972 17.5186 89.3298 17.3743 89.7745 17.3737C89.9322 17.3737 90.0747 17.3849 90.2011 17.4049L90.2027 19.0324ZM97.8342 21.008C97.8385 21.2673 97.8176 21.5264 97.7718 21.7817H92.6527C92.6719 22.5403 92.92 23.1212 93.3954 23.5212C93.8268 23.8781 94.3846 24.0573 95.0698 24.0573C95.8277 24.0573 96.5192 23.9373 97.1411 23.6949L97.4084 24.8783C96.6817 25.1952 95.8237 25.3528 94.8336 25.3528C93.6427 25.3528 92.7079 25.0023 92.0276 24.303C91.3489 23.6029 91.0087 22.6619 91.0087 21.4832C91.0087 20.3262 91.3248 19.362 91.9579 18.5931C92.6206 17.7721 93.5162 17.3617 94.6432 17.3617C95.7501 17.3617 96.5881 17.7721 97.1571 18.5931C97.6077 19.2436 97.8342 20.0502 97.8342 21.008ZM96.2071 20.5655C96.2191 20.059 96.107 19.6229 95.8757 19.254C95.5804 18.7787 95.1258 18.5419 94.5167 18.5419C93.9589 18.5419 93.5042 18.7731 93.1585 19.2372C92.8744 19.6061 92.7055 20.0494 92.6535 20.5639L96.2071 20.5655Z" fill="white"/>
<path d="M36.2504 10.7976C35.7758 10.7976 35.3652 10.7743 35.0234 10.7351V5.58696C35.5014 5.51314 35.9844 5.47676 36.4681 5.47814C38.425 5.47814 39.3262 6.44072 39.3262 8.00982C39.3262 9.81977 38.2617 10.7976 36.2504 10.7976ZM36.5369 6.13826C36.2728 6.13826 36.0479 6.15427 35.8614 6.19267V10.1062C35.9623 10.1222 36.1559 10.1294 36.4281 10.1294C37.7103 10.1294 38.4402 9.39969 38.4402 8.03302C38.4402 6.81439 37.7799 6.13826 36.5369 6.13826ZM42.1347 10.8368C41.0318 10.8368 40.317 10.0134 40.317 8.89559C40.317 7.73057 41.047 6.90001 42.1971 6.90001C43.284 6.90001 44.0147 7.68416 44.0147 8.83398C44.0147 10.0134 43.2616 10.8368 42.1347 10.8368ZM42.1667 7.51293C41.5608 7.51293 41.1726 8.07943 41.1726 8.87158C41.1726 9.64853 41.5688 10.215 42.1587 10.215C42.7485 10.215 43.1447 9.60932 43.1447 8.85558C43.1447 8.08744 42.7565 7.51293 42.1667 7.51293ZM50.304 6.97762L49.1234 10.7511H48.3543L47.8653 9.11243C47.7437 8.71159 47.6424 8.30486 47.5619 7.8938H47.5459C47.4843 8.30508 47.3674 8.71716 47.2434 9.11243L46.7232 10.7511H45.946L44.8351 6.97762H45.6971L46.1245 8.77157C46.2253 9.19885 46.3102 9.60212 46.3806 9.983H46.3966C46.4582 9.66534 46.5591 9.26846 46.7071 8.77957L47.2434 6.97842H47.9269L48.4399 8.74116C48.564 9.16844 48.6648 9.58772 48.7433 9.9838H48.7657C48.8201 9.59572 48.9057 9.18364 49.0218 8.74116L49.4804 6.97842L50.304 6.97762ZM54.6499 10.7511H53.8112V8.58433C53.8112 7.917 53.5551 7.58254 53.05 7.58254C52.553 7.58254 52.2112 8.00982 52.2112 8.50672V10.7511H51.3725V8.05623C51.3725 7.72257 51.3645 7.3649 51.3413 6.97682H52.0792L52.1184 7.55933H52.1416C52.3673 7.15606 52.8251 6.90001 53.3382 6.90001C54.1305 6.90001 54.6507 7.50572 54.6507 8.49151L54.6499 10.7511ZM56.963 10.7511H56.1234V5.24609H56.963V10.7511ZM60.0212 10.8368C58.9191 10.8368 58.2036 10.0134 58.2036 8.89559C58.2036 7.73057 58.9335 6.90001 60.0828 6.90001C61.1705 6.90001 61.9004 7.68416 61.9004 8.83398C61.9012 10.0134 61.1473 10.8368 60.0212 10.8368ZM60.0524 7.51293C59.4465 7.51293 59.0584 8.07943 59.0584 8.87158C59.0584 9.64853 59.4553 10.215 60.0436 10.215C60.6343 10.215 61.0296 9.60932 61.0296 8.85558C61.0304 8.08744 60.6431 7.51293 60.0524 7.51293ZM65.2075 10.7511L65.1467 10.3167H65.1243C64.8682 10.6663 64.4944 10.8368 64.0206 10.8368C63.3443 10.8368 62.8641 10.3631 62.8641 9.72615C62.8641 8.79477 63.6717 8.31308 65.0699 8.31308V8.24346C65.0699 7.74657 64.8066 7.49772 64.2863 7.49772C63.9142 7.49772 63.5876 7.59134 63.3003 7.77778L63.1298 7.22647C63.4788 7.00883 63.9142 6.90001 64.4256 6.90001C65.4116 6.90001 65.9095 7.42011 65.9095 8.46111V9.85097C65.9095 10.2318 65.9263 10.5271 65.9639 10.7519L65.2075 10.7511ZM65.0923 8.87158C64.1607 8.87158 63.6933 9.09723 63.6933 9.63253C63.6933 10.0286 63.9342 10.2222 64.2687 10.2222C64.6953 10.2222 65.0923 9.89658 65.0923 9.4541V8.87158ZM69.9825 10.7511L69.9433 10.1454H69.9201C69.6792 10.6031 69.2742 10.8368 68.7083 10.8368C67.7983 10.8368 67.1244 10.0366 67.1244 8.91079C67.1244 7.73057 67.8231 6.89921 68.7772 6.89921C69.2822 6.89921 69.64 7.06964 69.8417 7.41211H69.8585V5.24609H70.698V9.73415C70.698 10.099 70.7068 10.4407 70.7293 10.7511H69.9825ZM69.8585 8.53072C69.8585 8.00262 69.5087 7.55213 68.9749 7.55213C68.353 7.55213 67.9728 8.10344 67.9728 8.87959C67.9728 9.64053 68.3674 10.1614 68.9581 10.1614C69.4855 10.1614 69.8585 9.70294 69.8585 9.15964V8.53072ZM76.0213 10.8368C74.9192 10.8368 74.2044 10.0134 74.2044 8.89559C74.2044 7.73057 74.9344 6.90001 76.0837 6.90001C77.1714 6.90001 77.9013 7.68416 77.9013 8.83398C77.9021 10.0134 77.149 10.8368 76.0213 10.8368ZM76.0525 7.51293C75.4474 7.51293 75.0592 8.07943 75.0592 8.87158C75.0592 9.64853 75.4554 10.215 76.0445 10.215C76.6351 10.215 77.0305 9.60932 77.0305 8.85558C77.0321 8.08744 76.6439 7.51293 76.0525 7.51293ZM82.4122 10.7511H81.5726V8.58433C81.5726 7.917 81.3165 7.58254 80.8114 7.58254C80.3144 7.58254 79.9735 8.00982 79.9735 8.50672V10.7511H79.1339V8.05623C79.1339 7.72257 79.1259 7.3649 79.1027 6.97682H79.8406L79.8798 7.55933H79.903C80.1279 7.15606 80.5865 6.89921 81.0988 6.89921C81.8911 6.89921 82.4122 7.50492 82.4122 8.49071V10.7511ZM88.0555 7.60654H87.1327V9.43889C87.1327 9.90538 87.2944 10.1382 87.6209 10.1382C87.769 10.1382 87.8931 10.1222 87.9931 10.099L88.0163 10.7359C87.8538 10.7984 87.6361 10.8296 87.3656 10.8296C86.7045 10.8296 86.3091 10.4647 86.3091 9.50931V7.60654H85.7585V6.97762H86.3091V6.28629L87.1327 6.03744V6.97682H88.0555V7.60654ZM92.4959 10.7511H91.658V8.60033C91.658 7.925 91.4026 7.58334 90.8968 7.58334C90.4622 7.58334 90.0572 7.8786 90.0572 8.47631V10.7511H89.2193V5.24609H90.0572V7.51293H90.074C90.3382 7.10165 90.7207 6.89921 91.209 6.89921C92.0077 6.89921 92.4959 7.52013 92.4959 8.50672V10.7511ZM97.0452 9.06602H94.5281C94.5441 9.78056 95.0171 10.1838 95.7174 10.1838C96.0896 10.1838 96.4321 10.1214 96.7347 10.0054L96.8651 10.5879C96.5082 10.7431 96.088 10.8208 95.599 10.8208C94.4184 10.8208 93.7197 10.075 93.7197 8.91879C93.7197 7.76177 94.4352 6.89201 95.5045 6.89201C96.469 6.89201 97.074 7.60654 97.074 8.68595C97.0794 8.81333 97.0698 8.94091 97.0452 9.06602ZM96.2761 8.46831C96.2761 7.8858 95.9823 7.47452 95.4461 7.47452C94.9643 7.47452 94.5833 7.8938 94.5289 8.46831H96.2761Z" fill="white"/>
<defs>
<linearGradient id="paint0_linear" x1="79.2683" y1="32.0842" x2="79.2683" y2="-83.3135" gradientUnits="userSpaceOnUse">
<stop stop-color="#1A1A1A" stop-opacity="0.1"/>
<stop offset="0.123" stop-color="#212121" stop-opacity="0.151"/>
<stop offset="0.308" stop-color="#353535" stop-opacity="0.227"/>
<stop offset="0.532" stop-color="#575757" stop-opacity="0.318"/>
<stop offset="0.783" stop-color="#858585" stop-opacity="0.421"/>
<stop offset="1" stop-color="#B3B3B3" stop-opacity="0.51"/>
</linearGradient>
</defs>
</svg>
