<svg width="108" height="32" viewBox="0 0 108 32" fill="none" xmlns="http://www.w3.org/2000/svg">
<path d="M104 0H4C1.79086 0 0 1.79086 0 4V28C0 30.2091 1.79086 32 4 32H104C106.209 32 108 30.2091 108 28V4C108 1.79086 106.209 0 104 0Z" fill="black"/>
<path d="M104 0.64C104.891 0.64 105.746 0.993999 106.376 1.62412C107.006 2.25424 107.36 3.10887 107.36 4V28C107.36 28.8911 107.006 29.7458 106.376 30.3759C105.746 31.006 104.891 31.36 104 31.36H4C3.10887 31.36 2.25424 31.006 1.62412 30.3759C0.993999 29.7458 0.64 28.8911 0.64 28V4C0.64 3.10887 0.993999 2.25424 1.62412 1.62412C2.25424 0.993999 3.10887 0.64 4 0.64H104ZM104 0H4C2.93913 0 1.92172 0.421427 1.17157 1.17157C0.421427 1.92172 0 2.93913 0 4V28C0 29.0609 0.421427 30.0783 1.17157 30.8284C1.92172 31.5786 2.93913 32 4 32H104C105.061 32 106.078 31.5786 106.828 30.8284C107.579 30.0783 108 29.0609 108 28V4C108 2.93913 107.579 1.92172 106.828 1.17157C106.078 0.421427 105.061 0 104 0Z" fill="#A6A6A6"/>
<path d="M54.5119 17.4007C53.8378 17.4023 53.1794 17.6037 52.6199 17.9795C52.0603 18.3553 51.6247 18.8886 51.3683 19.5119C51.1118 20.1353 51.0459 20.8206 51.1789 21.4814C51.312 22.1422 51.638 22.7487 52.1157 23.2242C52.5935 23.6997 53.2015 24.0228 53.8629 24.1528C54.5243 24.2827 55.2093 24.2136 55.8315 23.9542C56.4536 23.6948 56.9848 23.2568 57.358 22.6954C57.7311 22.1341 57.9295 21.4748 57.9279 20.8007C57.9344 20.3511 57.8504 19.9047 57.6808 19.4882C57.5113 19.0717 57.2596 18.6936 56.9409 18.3763C56.6222 18.0591 56.2429 17.8092 55.8256 17.6416C55.4083 17.474 54.9615 17.3921 54.5119 17.4007V17.4007ZM54.5119 22.8647C54.0987 22.8936 53.6865 22.7976 53.3287 22.589C52.9708 22.3805 52.684 22.0692 52.5055 21.6955C52.327 21.3218 52.265 20.903 52.3276 20.4936C52.3902 20.0843 52.5746 19.7032 52.8567 19.4C53.1387 19.0967 53.5055 18.8854 53.9093 18.7933C54.3131 18.7013 54.7352 18.7329 55.1208 18.884C55.5064 19.0351 55.8377 19.2987 56.0715 19.6405C56.3053 19.9823 56.4309 20.3866 56.4319 20.8007C56.4448 21.0631 56.405 21.3255 56.3149 21.5723C56.2248 21.819 56.0861 22.0453 55.9072 22.2377C55.7283 22.43 55.5126 22.5846 55.273 22.6923C55.0333 22.8 54.7745 22.8586 54.5119 22.8647ZM47.0559 17.4007C46.3818 17.4023 45.7234 17.6037 45.1639 17.9795C44.6043 18.3553 44.1687 18.8886 43.9123 19.5119C43.6558 20.1353 43.5899 20.8206 43.7229 21.4814C43.856 22.1422 44.182 22.7487 44.6597 23.2242C45.1375 23.6997 45.7455 24.0228 46.4069 24.1528C47.0683 24.2827 47.7533 24.2136 48.3755 23.9542C48.9976 23.6948 49.5288 23.2568 49.902 22.6954C50.2751 22.1341 50.4735 21.4748 50.4719 20.8007C50.4784 20.3511 50.3944 19.9047 50.2248 19.4882C50.0553 19.0717 49.8036 18.6936 49.4849 18.3763C49.1662 18.0591 48.7869 17.8092 48.3696 17.6416C47.9523 17.474 47.5055 17.3921 47.0559 17.4007V17.4007ZM47.0559 22.8647C46.6427 22.8936 46.2305 22.7976 45.8727 22.589C45.5148 22.3805 45.228 22.0692 45.0495 21.6955C44.871 21.3218 44.809 20.903 44.8716 20.4936C44.9343 20.0843 45.1186 19.7032 45.4007 19.4C45.6827 19.0967 46.0495 18.8854 46.4533 18.7933C46.8571 18.7013 47.2792 18.7329 47.6648 18.884C48.0504 19.0351 48.3817 19.2987 48.6155 19.6405C48.8493 19.9823 48.9749 20.3866 48.9759 20.8007C48.9888 21.0631 48.949 21.3255 48.8589 21.5723C48.7688 21.819 48.6301 22.0453 48.4512 22.2377C48.2723 22.43 48.0566 22.5846 47.817 22.6923C47.5773 22.8 47.3185 22.8586 47.0559 22.8647ZM38.1919 18.4487V19.8887H41.6479C41.5937 20.567 41.3118 21.207 40.8479 21.7047C40.5012 22.0579 40.0842 22.3344 39.624 22.5163C39.1637 22.6982 38.6704 22.7815 38.1759 22.7607C37.1575 22.7607 36.1807 22.3561 35.4606 21.636C34.7405 20.9159 34.3359 19.9392 34.3359 18.9207C34.3359 17.9023 34.7405 16.9256 35.4606 16.2054C36.1807 15.4853 37.1575 15.0807 38.1759 15.0807C39.1522 15.0662 40.095 15.437 40.7999 16.1127L41.8159 15.0967C41.3391 14.6251 40.7729 14.2534 40.1507 14.0034C39.5284 13.7534 38.8624 13.6301 38.1919 13.6407C37.4807 13.613 36.7712 13.7292 36.106 13.9823C35.4408 14.2354 34.8335 14.6201 34.3205 15.1135C33.8075 15.6069 33.3994 16.1988 33.1207 16.8537C32.8419 17.5086 32.6982 18.213 32.6982 18.9247C32.6982 19.6365 32.8419 20.3409 33.1207 20.9958C33.3994 21.6506 33.8075 22.2425 34.3205 22.7359C34.8335 23.2293 35.4408 23.6141 36.106 23.8671C36.7712 24.1202 37.4807 24.2364 38.1919 24.2087C38.8762 24.2361 39.5586 24.1183 40.1942 23.8632C40.8298 23.6082 41.4043 23.2215 41.8799 22.7287C42.72 21.8058 43.1676 20.5921 43.1279 19.3447C43.1307 19.0445 43.1067 18.7446 43.0559 18.4487H38.1919ZM74.4399 19.5687C74.2312 18.9549 73.8411 18.4189 73.3211 18.0318C72.8011 17.6446 72.1757 17.4246 71.5279 17.4007C71.0903 17.3999 70.6572 17.4888 70.2553 17.6619C69.8534 17.8351 69.4913 18.0889 69.1914 18.4075C68.8915 18.7262 68.6601 19.103 68.5116 19.5146C68.363 19.9263 68.3005 20.364 68.3279 20.8007C68.321 21.531 68.5506 22.2439 68.9824 22.8329C69.4141 23.422 70.0248 23.8555 70.7233 24.0688C71.4218 24.2822 72.1705 24.2638 72.8577 24.0165C73.5448 23.7692 74.1335 23.3062 74.5359 22.6967L73.3759 21.8967C73.203 22.1849 72.9577 22.423 72.6644 22.5871C72.3711 22.7513 72.04 22.836 71.7039 22.8327C71.3571 22.847 71.0142 22.7561 70.7201 22.5719C70.4259 22.3878 70.1944 22.1189 70.0559 21.8007L74.6079 19.9207L74.4399 19.5687ZM69.7999 20.7047C69.7837 20.4562 69.8172 20.207 69.8985 19.9716C69.9798 19.7362 70.1073 19.5194 70.2734 19.3339C70.4395 19.1484 70.641 18.9979 70.866 18.8913C71.0911 18.7846 71.3351 18.7239 71.5839 18.7127C71.8417 18.697 72.0983 18.7577 72.3217 18.8872C72.5452 19.0167 72.7254 19.2092 72.8399 19.4407L69.7999 20.7047ZM66.1039 24.0007H67.5999V14.0007H66.1039V24.0007ZM63.6559 18.1607H63.5999C63.3764 17.9062 63.1006 17.703 62.7913 17.5649C62.482 17.4268 62.1466 17.3572 61.8079 17.3607C60.9336 17.4031 60.1092 17.7803 59.5055 18.414C58.9017 19.0477 58.565 19.8894 58.565 20.7647C58.565 21.64 58.9017 22.4817 59.5055 23.1155C60.1092 23.7492 60.9336 24.1263 61.8079 24.1687C62.1471 24.1755 62.4835 24.1073 62.7933 23.9691C63.1031 23.8308 63.3785 23.6258 63.5999 23.3687H63.6559V23.8567C63.6559 25.1607 62.9599 25.8567 61.8399 25.8567C61.4657 25.8485 61.1025 25.7293 60.7962 25.5142C60.49 25.2991 60.2546 24.9979 60.1199 24.6487L58.8239 25.1847C59.0635 25.7865 59.4801 26.3014 60.0186 26.6614C60.5571 27.0214 61.1922 27.2094 61.8399 27.2007C63.5919 27.2007 65.0399 26.1687 65.0399 23.6567V17.6007H63.6559V18.1607ZM61.9359 22.8647C61.4117 22.832 60.9197 22.6008 60.5601 22.2181C60.2005 21.8353 60.0003 21.3299 60.0003 20.8047C60.0003 20.2795 60.2005 19.7741 60.5601 19.3914C60.9197 19.0087 61.4117 18.7774 61.9359 18.7447C62.1921 18.7558 62.4434 18.8183 62.675 18.9284C62.9065 19.0386 63.1135 19.1942 63.2837 19.3861C63.4539 19.5779 63.5838 19.802 63.6656 20.045C63.7474 20.288 63.7794 20.545 63.7599 20.8007C63.7817 21.0573 63.7513 21.3156 63.6704 21.56C63.5896 21.8045 63.46 22.03 63.2895 22.2229C63.119 22.4159 62.9111 22.5722 62.6784 22.6825C62.4458 22.7929 62.1932 22.8548 61.9359 22.8647V22.8647ZM81.4479 14.0007H77.8639V24.0007H79.3599V20.2087H81.4479C81.8742 20.2393 82.3023 20.1818 82.7055 20.0397C83.1086 19.8976 83.4782 19.6739 83.7911 19.3827C84.104 19.0915 84.3535 18.7389 84.5242 18.347C84.6948 17.9551 84.7829 17.5322 84.7829 17.1047C84.7829 16.6773 84.6948 16.2544 84.5242 15.8625C84.3535 15.4705 84.104 15.118 83.7911 14.8267C83.4782 14.5355 83.1086 14.3119 82.7055 14.1697C82.3023 14.0276 81.8742 13.9701 81.4479 14.0007V14.0007ZM81.4479 18.8007H79.3599V15.3927H81.4799C81.7047 15.3927 81.9273 15.437 82.135 15.523C82.3428 15.6091 82.5315 15.7352 82.6904 15.8942C82.8494 16.0531 82.9755 16.2419 83.0616 16.4496C83.1476 16.6573 83.1919 16.8799 83.1919 17.1047C83.1919 17.3295 83.1476 17.5522 83.0616 17.7599C82.9755 17.9676 82.8494 18.1563 82.6904 18.3153C82.5315 18.4743 82.3428 18.6004 82.135 18.6864C81.9273 18.7724 81.7047 18.8167 81.4799 18.8167L81.4479 18.8007ZM90.6799 17.3687C90.1351 17.3351 89.5924 17.462 89.1189 17.7335C88.6454 18.0051 88.262 18.4095 88.0159 18.8967L89.3359 19.4487C89.4693 19.2082 89.6694 19.0115 89.9122 18.8823C90.1549 18.7532 90.4299 18.697 90.7039 18.7207C90.8938 18.6985 91.0862 18.7144 91.2699 18.7674C91.4536 18.8204 91.625 18.9094 91.7739 19.0293C91.9228 19.1492 92.0464 19.2975 92.1374 19.4657C92.2284 19.6339 92.285 19.8185 92.3039 20.0087V20.1047C91.8228 19.8519 91.2874 19.7201 90.7439 19.7207C89.3199 19.7207 87.8639 20.5207 87.8639 21.9767C87.878 22.2862 87.9541 22.5897 88.0878 22.8692C88.2214 23.1486 88.4099 23.3984 88.642 23.6036C88.8741 23.8088 89.145 23.9653 89.4388 24.0638C89.7325 24.1622 90.043 24.2006 90.3519 24.1767C90.7273 24.1975 91.1015 24.118 91.436 23.9465C91.7706 23.775 92.0536 23.5176 92.2559 23.2007H92.3039V24.0007H93.7439V20.1527C93.7439 18.4007 92.4159 17.3847 90.7119 17.3847L90.6799 17.3687ZM90.4959 22.8487C90.0079 22.8487 89.3279 22.6007 89.3279 22.0007C89.3279 21.2007 90.1759 20.9287 90.9279 20.9287C91.4031 20.917 91.8728 21.033 92.2879 21.2647C92.2377 21.6992 92.0317 22.1007 91.708 22.3949C91.3844 22.6891 90.9652 22.856 90.5279 22.8647L90.4959 22.8487ZM98.9919 17.6007L97.2799 21.9367H97.2319L95.4559 17.6007H93.8559L96.5199 23.6647L94.9999 27.0327H96.5599L100.656 17.6007H98.9919ZM85.5519 24.0007H87.0399V14.0007H85.5519V24.0007Z" fill="white"/>
<path d="M8.3521 6.03256C8.08847 6.34426 7.95396 6.74493 7.9761 7.15256V24.8486C7.94888 25.2569 8.08401 25.6594 8.3521 25.9686L8.4081 26.0326L18.3201 16.1206V15.8806L8.4081 5.97656L8.3521 6.03256Z" fill="url(#paint0_linear)"/>
<path d="M21.5998 19.4242L18.3198 16.1202V15.8802L21.5998 12.5762L21.6718 12.6242L25.5998 14.8482C26.7198 15.4802 26.7198 16.5202 25.5998 17.1602L21.6878 19.3842L21.5998 19.4242Z" fill="url(#paint1_linear)"/>
<path d="M21.696 19.376L18.3201 16L8.35205 25.968C8.57811 26.1692 8.86746 26.285 9.16993 26.2952C9.4724 26.3054 9.76891 26.2095 10.0081 26.024L21.696 19.376" fill="url(#paint2_linear)"/>
<path d="M21.696 12.6251L10.0081 5.98515C9.77047 5.79708 9.47419 5.69879 9.17131 5.70757C8.86843 5.71635 8.57834 5.83163 8.35205 6.03315L18.3201 16.0011L21.696 12.6251Z" fill="url(#paint3_linear)"/>
<path opacity="0.2" d="M21.6001 19.3047L10.0081 25.9047C9.77761 26.0786 9.49676 26.1727 9.20805 26.1727C8.91934 26.1727 8.63849 26.0786 8.40805 25.9047V25.9047L8.35205 25.9607L8.40805 26.0247C8.63849 26.1986 8.91934 26.2927 9.20805 26.2927C9.49676 26.2927 9.77761 26.1986 10.0081 26.0247L21.696 19.3767L21.6001 19.3047Z" fill="black"/>
<path opacity="0.12" d="M8.35171 25.8565C8.09474 25.5392 7.96881 25.1357 7.99971 24.7285V24.8485C7.97249 25.2568 8.10762 25.6594 8.37571 25.9685L8.43171 25.9125L8.35171 25.8565Z" fill="black"/>
<path opacity="0.12" d="M25.6001 17.04L21.6001 19.304L21.6721 19.376L25.6001 17.152C25.832 17.054 26.0331 16.8952 26.1823 16.6925C26.3316 16.4897 26.4234 16.2505 26.4481 16C26.3981 16.2277 26.2953 16.4404 26.148 16.621C26.0007 16.8017 25.813 16.9452 25.6001 17.04Z" fill="black"/>
<path opacity="0.25" d="M10.0081 6.09716L25.6001 14.9612C25.813 15.056 26.0007 15.1995 26.148 15.3801C26.2953 15.5608 26.3981 15.7735 26.4481 16.0012C26.4234 15.7506 26.3315 15.5114 26.1823 15.3087C26.0331 15.1059 25.8319 14.9472 25.6001 14.8492L10.0081 5.98515C8.89607 5.34515 7.97607 5.87316 7.97607 7.15315V7.27315C8.00007 5.99315 8.89607 5.46516 10.0081 6.09716Z" fill="white"/>
<path d="M33.0239 10.4005V5.60046H34.4879C34.8135 5.58472 35.1389 5.63547 35.4443 5.74963C35.7496 5.86379 36.0285 6.03896 36.2639 6.26446C36.4845 6.49514 36.6568 6.76749 36.7708 7.06557C36.8848 7.36365 36.9382 7.68148 36.9279 8.00046C36.9382 8.31943 36.8848 8.63726 36.7708 8.93534C36.6568 9.23343 36.4845 9.50578 36.2639 9.73646C36.0285 9.96195 35.7496 10.1371 35.4443 10.2513C35.1389 10.3654 34.8135 10.4162 34.4879 10.4005H33.0239ZM33.6399 9.80846H34.4879C34.7309 9.83057 34.9757 9.79899 35.2052 9.71595C35.4346 9.63291 35.6429 9.50045 35.8154 9.32793C35.9879 9.15542 36.1204 8.94708 36.2034 8.71768C36.2865 8.48828 36.318 8.24342 36.2959 8.00046C36.3166 7.75781 36.284 7.51357 36.2005 7.28482C36.117 7.05607 35.9845 6.84833 35.8123 6.67613C35.6401 6.50393 35.4323 6.37142 35.2036 6.28788C34.9748 6.20433 34.7306 6.17177 34.4879 6.19246H33.6399V9.80846Z" fill="white" stroke="white" stroke-width="0.2" stroke-miterlimit="10"/>
<path d="M37.792 10.3996V5.59961H38.4V10.3996H37.792Z" fill="white" stroke="white" stroke-width="0.2" stroke-miterlimit="10"/>
<path d="M40.8561 10.5043C40.4911 10.4984 40.1366 10.3811 39.8401 10.1683C39.5088 9.94185 39.2746 9.59921 39.1841 9.20827L39.7441 8.97627C39.8127 9.2367 39.9576 9.4707 40.1601 9.64827C40.3512 9.82073 40.5987 9.91746 40.8561 9.92027C41.1033 9.92857 41.346 9.85238 41.5441 9.70427C41.6358 9.64131 41.7103 9.5563 41.7606 9.45705C41.8109 9.3578 41.8355 9.24749 41.8321 9.13627C41.8385 9.01667 41.8156 8.89733 41.7654 8.78859C41.7152 8.67985 41.6392 8.585 41.5441 8.51227C41.2703 8.3272 40.9674 8.1893 40.6481 8.10427C40.2881 8.01184 39.9559 7.83339 39.6801 7.58427C39.5733 7.48071 39.489 7.35619 39.4325 7.21852C39.3761 7.08086 39.3487 6.93301 39.3521 6.78427C39.3522 6.61329 39.3887 6.4443 39.459 6.28846C39.5294 6.13263 39.632 5.9935 39.7601 5.88027C40.0498 5.6495 40.406 5.51793 40.7762 5.50497C41.1464 5.492 41.5109 5.59833 41.8161 5.80827C42.0465 5.9726 42.2199 6.20472 42.3121 6.47227L41.7521 6.70427C41.699 6.53825 41.5955 6.39286 41.4561 6.28827C41.2818 6.14914 41.0629 6.07807 40.8401 6.08827C40.6207 6.0847 40.4065 6.15515 40.2321 6.28827C40.1544 6.34535 40.0914 6.4201 40.0482 6.50635C40.0051 6.59259 39.9831 6.68785 39.9841 6.78427C39.983 6.87225 40.0036 6.95914 40.0441 7.03727C40.0845 7.1154 40.1436 7.18237 40.2161 7.23227C40.421 7.38379 40.6512 7.49757 40.8961 7.56827C41.0975 7.62854 41.2952 7.70067 41.4881 7.78427C41.6582 7.86232 41.8192 7.9589 41.9681 8.07227C42.1261 8.1853 42.2528 8.33673 42.3361 8.51227C42.426 8.70487 42.4699 8.91578 42.4641 9.12827C42.4677 9.3449 42.4183 9.55913 42.3201 9.75227C42.2321 9.92738 42.0997 10.0763 41.9361 10.1843C41.7798 10.2938 41.6069 10.3775 41.4241 10.4323C41.2393 10.4841 41.0479 10.5083 40.8561 10.5043Z" fill="white" stroke="white" stroke-width="0.2" stroke-miterlimit="10"/>
<path d="M43.9998 10.3998H43.3838V5.59983H44.9838C45.3755 5.59311 45.7544 5.73949 46.0398 6.00783C46.1812 6.13748 46.294 6.2951 46.3713 6.47069C46.4485 6.64629 46.4883 6.83601 46.4883 7.02783C46.4883 7.21965 46.4485 7.40938 46.3713 7.58497C46.294 7.76056 46.1812 7.91818 46.0398 8.04783C45.7544 8.31617 45.3755 8.46255 44.9838 8.45583H43.9998V10.3998ZM43.9998 7.86383H45.0398C45.1548 7.868 45.2694 7.84728 45.3757 7.8031C45.4821 7.75892 45.5776 7.69231 45.6558 7.60783C45.7345 7.5331 45.7971 7.44314 45.8399 7.34343C45.8827 7.24372 45.9048 7.13634 45.9048 7.02783C45.9048 6.91932 45.8827 6.81195 45.8399 6.71224C45.7971 6.61253 45.7345 6.52257 45.6558 6.44783C45.5776 6.36335 45.4821 6.29674 45.3757 6.25256C45.2694 6.20838 45.1548 6.18767 45.0398 6.19183H43.9998V7.86383Z" fill="white" stroke="white" stroke-width="0.2" stroke-miterlimit="10"/>
<path d="M51.1997 9.77753C50.9686 10.0088 50.6942 10.1922 50.3922 10.3174C50.0902 10.4425 49.7666 10.507 49.4397 10.507C49.1128 10.507 48.7891 10.4425 48.4871 10.3174C48.1851 10.1922 47.9107 10.0088 47.6797 9.77753C47.2274 9.29677 46.9756 8.66158 46.9756 8.00153C46.9756 7.34148 47.2274 6.70629 47.6797 6.22553C47.9107 5.99428 48.1851 5.81084 48.4871 5.68568C48.7891 5.56051 49.1128 5.49609 49.4397 5.49609C49.7666 5.49609 50.0902 5.56051 50.3922 5.68568C50.6942 5.81084 50.9686 5.99428 51.1997 6.22553C51.4279 6.46045 51.607 6.7385 51.7265 7.04345C51.846 7.34839 51.9035 7.6741 51.8957 8.00153C51.9072 8.32941 51.8514 8.65618 51.7317 8.96165C51.612 9.26711 51.4309 9.54479 51.1997 9.77753V9.77753ZM48.1357 9.37753C48.3042 9.5526 48.5069 9.69122 48.7312 9.78479C48.9555 9.87836 49.1966 9.9249 49.4397 9.92153C49.6829 9.92635 49.9244 9.88047 50.1489 9.78681C50.3734 9.69315 50.576 9.55377 50.7437 9.37753C51.0888 9.00243 51.2804 8.51129 51.2804 8.00153C51.2804 7.49177 51.0888 7.00063 50.7437 6.62553C50.576 6.4493 50.3734 6.30991 50.1489 6.21625C49.9244 6.12259 49.6829 6.07671 49.4397 6.08153C49.1966 6.07816 48.9555 6.1247 48.7312 6.21827C48.5069 6.31184 48.3042 6.45046 48.1357 6.62553C47.7955 7.00314 47.6073 7.49333 47.6073 8.00153C47.6073 8.50973 47.7955 8.99992 48.1357 9.37753Z" fill="white" stroke="white" stroke-width="0.2" stroke-miterlimit="10"/>
<path d="M52.7998 10.3996V5.59961H53.5518L55.8798 9.33561V8.40761V5.59961H56.5038V10.3996H55.8558L53.4558 6.48761V7.40761V10.3996H52.7998Z" fill="white" stroke="white" stroke-width="0.2" stroke-miterlimit="10"/>
<path d="M57.6001 10.3996V5.59961H58.2161V10.3996H57.6001Z" fill="white" stroke="white" stroke-width="0.2" stroke-miterlimit="10"/>
<path d="M59.272 10.3997V5.59968H61.008C61.3679 5.59607 61.7161 5.72736 61.984 5.96768C62.1177 6.08369 62.2242 6.22766 62.2961 6.38941C62.368 6.55115 62.4034 6.72672 62.4 6.90368C62.4019 7.11918 62.3407 7.33054 62.224 7.51168C62.1059 7.68345 61.9425 7.81914 61.752 7.90368V7.90368C61.9829 7.98266 62.1859 8.12722 62.336 8.31968C62.483 8.51574 62.5617 8.75461 62.56 8.99968C62.5641 9.18411 62.5275 9.36717 62.4528 9.53585C62.3781 9.70454 62.2672 9.8547 62.128 9.97568C61.8503 10.2341 61.4832 10.3746 61.104 10.3677L59.272 10.3997ZM59.888 7.65568H61.008C61.1128 7.66174 61.2176 7.64402 61.3146 7.60385C61.4115 7.56367 61.4982 7.50208 61.568 7.42368C61.7036 7.29075 61.7813 7.1096 61.784 6.91968C61.7915 6.72918 61.7257 6.54304 61.6 6.39968C61.5327 6.32508 61.4498 6.2663 61.3571 6.22756C61.2644 6.18883 61.1643 6.17111 61.064 6.17568H59.888V7.65568ZM59.888 9.80768H61.136C61.2443 9.81132 61.3521 9.79097 61.4517 9.7481C61.5513 9.70523 61.6402 9.64089 61.712 9.55968C61.8501 9.41214 61.9273 9.21779 61.928 9.01568C61.9231 8.81526 61.8432 8.62397 61.704 8.47968C61.6269 8.39871 61.5336 8.3348 61.4303 8.29208C61.3269 8.24936 61.2158 8.22879 61.104 8.23168H59.888V9.80768Z" fill="white" stroke="white" stroke-width="0.2" stroke-miterlimit="10"/>
<path d="M63.3921 10.3996V5.59961H64.0001V9.80761H66.0801V10.3996H63.3921Z" fill="white" stroke="white" stroke-width="0.2" stroke-miterlimit="10"/>
<path d="M69.6643 6.19161H67.4803V7.71161H69.4483V8.28761H67.4803V9.80761H69.6643V10.3996H66.8643V5.59961H69.6643V6.19161Z" fill="white" stroke="white" stroke-width="0.2" stroke-miterlimit="10"/>
<path d="M73.3917 10.5043C73.0244 10.4975 72.6676 10.3804 72.3677 10.1683C72.0394 9.94042 71.8083 9.59796 71.7197 9.20827L72.2797 8.97627C72.3484 9.2367 72.4932 9.4707 72.6957 9.64827C72.8868 9.82073 73.1343 9.91746 73.3917 9.92027C73.6388 9.92731 73.881 9.85125 74.0797 9.70427C74.1715 9.64131 74.2459 9.5563 74.2963 9.45705C74.3466 9.3578 74.3712 9.24749 74.3677 9.13627C74.3741 9.01667 74.3512 8.89733 74.301 8.78859C74.2508 8.67985 74.1749 8.585 74.0797 8.51227C73.8029 8.32744 73.4975 8.18959 73.1757 8.10427C72.8181 8.01184 72.4885 7.83332 72.2157 7.58427C72.1073 7.48193 72.0219 7.35763 71.9654 7.21967C71.9088 7.08171 71.8823 6.93327 71.8877 6.78427C71.8879 6.61329 71.9243 6.4443 71.9947 6.28846C72.065 6.13263 72.1676 5.9935 72.2957 5.88027C72.5855 5.6495 72.9417 5.51793 73.3118 5.50497C73.682 5.492 74.0466 5.59833 74.3517 5.80827C74.5821 5.9726 74.7555 6.20472 74.8477 6.47227L74.2877 6.70427C74.235 6.53587 74.1282 6.38962 73.9837 6.28827C73.813 6.14834 73.5962 6.07704 73.3757 6.08827C73.1563 6.0847 72.9421 6.15515 72.7677 6.28827C72.689 6.34495 72.6248 6.41942 72.5803 6.50561C72.5358 6.5918 72.5123 6.68728 72.5117 6.78427C72.5126 6.87189 72.5341 6.95806 72.5744 7.03587C72.6147 7.11368 72.6727 7.18095 72.7437 7.23227C72.9506 7.38056 73.1803 7.49406 73.4237 7.56827C73.6281 7.62734 73.8286 7.69949 74.0237 7.78427C74.1929 7.86413 74.3537 7.96061 74.5037 8.07227C74.6618 8.1853 74.7884 8.33673 74.8717 8.51227C74.9578 8.70613 75.0015 8.91616 74.9997 9.12827C75.0033 9.3449 74.9539 9.55913 74.8557 9.75227C74.7677 9.92738 74.6353 10.0763 74.4717 10.1843C74.3154 10.2938 74.1426 10.3775 73.9597 10.4323C73.775 10.4841 73.5836 10.5083 73.3917 10.5043V10.5043Z" fill="white" stroke="white" stroke-width="0.2" stroke-miterlimit="10"/>
<path d="M77.5524 10.5036C77.313 10.5138 77.0743 10.4726 76.8521 10.383C76.63 10.2933 76.4296 10.1571 76.2644 9.98361C75.9289 9.6091 75.7536 9.11792 75.7764 8.61561V5.59961H76.3924V8.63961C76.3761 8.9745 76.4812 9.30402 76.6884 9.56761C76.7969 9.68713 76.9309 9.7808 77.0804 9.84172C77.2299 9.90263 77.3912 9.92925 77.5524 9.91961C77.7086 9.93256 77.8658 9.91057 78.0125 9.85522C78.1591 9.79987 78.2916 9.71255 78.4004 9.59961C78.6105 9.33714 78.7184 9.0075 78.7044 8.67161V5.59961H79.3204V8.61561C79.3444 9.11669 79.1723 9.60742 78.8404 9.98361C78.6762 10.1584 78.4759 10.2954 78.2535 10.3852C78.0311 10.475 77.7919 10.5154 77.5524 10.5036V10.5036Z" fill="white" stroke="white" stroke-width="0.2" stroke-miterlimit="10"/>
<path d="M80.3198 10.3998V5.59983H81.9198C82.3115 5.59311 82.6904 5.73949 82.9758 6.00783C83.1213 6.135 83.2369 6.29272 83.3143 6.46974C83.3918 6.64675 83.4292 6.83869 83.4238 7.03183C83.4237 7.35743 83.3074 7.6723 83.0958 7.91983C82.8915 8.1661 82.6093 8.3354 82.2958 8.39983V8.39983L83.6398 10.3998H82.9118L81.5998 8.45583H80.9198V10.3998H80.3198ZM80.9358 7.87983H81.9278C82.1616 7.88458 82.3881 7.79856 82.5598 7.63983C82.6447 7.56324 82.7122 7.46934 82.7578 7.36446C82.8033 7.25958 82.8258 7.14616 82.8238 7.03183C82.8218 6.8151 82.739 6.6069 82.5918 6.44783C82.5127 6.3623 82.4159 6.29507 82.3081 6.25086C82.2003 6.20664 82.0842 6.18649 81.9678 6.19183H80.9358V7.87983Z" fill="white" stroke="white" stroke-width="0.2" stroke-miterlimit="10"/>
<defs>
<linearGradient id="paint0_linear" x1="17.4401" y1="6.96856" x2="4.0161" y2="20.3926" gradientUnits="userSpaceOnUse">
<stop stop-color="#00A0FF"/>
<stop offset="0.01" stop-color="#00A1FF"/>
<stop offset="0.26" stop-color="#00BEFF"/>
<stop offset="0.51" stop-color="#00D2FF"/>
<stop offset="0.76" stop-color="#00DFFF"/>
<stop offset="1" stop-color="#00E3FF"/>
</linearGradient>
<linearGradient id="paint1_linear" x1="27.0638" y1="16.0002" x2="7.71183" y2="16.0002" gradientUnits="userSpaceOnUse">
<stop stop-color="#FFE000"/>
<stop offset="0.41" stop-color="#FFBD00"/>
<stop offset="0.78" stop-color="#FFA500"/>
<stop offset="1" stop-color="#FF9C00"/>
</linearGradient>
<linearGradient id="paint2_linear" x1="19.864" y1="17.84" x2="1.65605" y2="36.04" gradientUnits="userSpaceOnUse">
<stop stop-color="#FF3A44"/>
<stop offset="1" stop-color="#C31162"/>
</linearGradient>
<linearGradient id="paint3_linear" x1="5.84005" y1="0.145148" x2="13.9681" y2="8.27315" gradientUnits="userSpaceOnUse">
<stop stop-color="#32A071"/>
<stop offset="0.07" stop-color="#2DA771"/>
<stop offset="0.48" stop-color="#15CF74"/>
<stop offset="0.8" stop-color="#06E775"/>
<stop offset="1" stop-color="#00F076"/>
</linearGradient>
</defs>
</svg>
