<svg width="100" height="32" viewBox="0 0 100 32" fill="none" xmlns="http://www.w3.org/2000/svg">
<path d="M17.6217 16.2463C18.0621 16.6856 18.4114 17.2076 18.6498 17.7823C18.8882 18.3569 19.0109 18.973 19.0109 19.5953C19.0109 20.2175 18.8882 20.8336 18.6498 21.4083C18.4114 21.9829 18.0621 22.5049 17.6217 22.9442L10.0712 30.4999C9.11942 31.4571 7.82665 31.9967 6.4773 32C5.12794 32.0033 3.83252 31.4701 2.87602 30.5177C1.91953 29.5652 1.3803 28.2716 1.37697 26.9213C1.37364 25.571 1.90647 24.2747 2.85826 23.3176L13.7665 12.4062L17.6217 16.2463Z" fill="#2E26F1"/>
<path d="M28.1304 20.7486C29.5309 21.8504 31.2371 22.493 33.016 22.5886C34.3485 22.5886 34.8814 22.1442 34.8814 21.5531C34.8814 20.8375 33.9354 20.5797 32.4964 20.3486C30.1424 19.9441 26.8113 19.4597 26.8113 15.904C26.8113 13.4595 28.9077 11.335 32.754 11.335C34.8347 11.3142 36.868 11.9571 38.559 13.1706L36.8623 16.104C35.7312 15.1209 34.2833 14.5795 32.7851 14.5795C31.7502 14.5795 31.0085 14.9262 31.0085 15.5306C31.0085 16.1351 31.7546 16.3929 33.2292 16.6507C35.5876 17.0551 39.0919 17.6285 39.0919 21.3086C39.0919 23.9531 36.7646 25.9043 32.7717 25.9043C30.3023 25.9043 27.744 25.0732 26.2783 23.7798L28.1304 20.7486Z" fill="white"/>
<path d="M46.686 20.6639L45.3536 22.2462V25.5796H40.9121V6.40576H45.3536V17.2416L49.5996 11.6948H54.9294L49.8173 18.0194L55.1914 25.5751H49.7329L46.686 20.6639Z" fill="white"/>
<path d="M62.2268 11.3525C66.3352 11.3525 69.3332 14.3704 69.3332 19.0816V20.0327H59.442C59.6996 21.3261 60.9077 22.5039 62.9952 22.5039C64.2246 22.5014 65.4178 22.0868 66.384 21.3261L68.2539 24.0995C66.877 25.335 64.5764 25.9351 62.4533 25.9351C58.1718 25.9351 54.8673 23.1483 54.8673 18.6371C54.8451 14.597 57.8919 11.3525 62.2268 11.3525ZM59.371 17.1571H65.1005C64.985 16.1793 64.2699 14.7704 62.2268 14.7704C61.5383 14.7366 60.8622 14.9634 60.3331 15.4056C59.804 15.8478 59.4605 16.4731 59.371 17.1571Z" fill="white"/>
<path d="M71.0791 6.40576H75.5206V25.5796H71.0791V6.40576Z" fill="white"/>
<path d="M78.2871 6.40576H82.7286V25.5796H78.2871V6.40576Z" fill="white"/>
<path d="M84.5762 18.6239C84.5762 14.7126 87.4232 11.3525 92.1267 11.3525C96.8302 11.3525 99.7127 14.7126 99.7127 18.6239C99.7127 22.5351 96.9012 25.9219 92.1311 25.9219C87.361 25.9219 84.5762 22.5307 84.5762 18.6239ZM95.178 18.6239C95.178 16.7838 94.0854 15.2593 92.1311 15.2593C90.1769 15.2593 89.1287 16.7838 89.1287 18.6239C89.1287 20.4639 90.1902 22.0151 92.1133 22.0151C94.0365 22.0151 95.178 20.4906 95.178 18.6239Z" fill="white"/>
<path d="M6.58004 5.21045L2.35621 9.43274C1.46905 10.3212 0.970703 11.5257 0.970703 12.7817C0.970703 14.0377 1.46905 15.2422 2.35621 16.1306L6.19807 19.9707L17.1019 9.06385L13.753 12.415L6.58004 5.21045Z" fill="#459FFF"/>
<path d="M17.4883 1.48589C16.5343 0.534321 15.2422 0 13.8952 0C12.5482 0 11.2561 0.534321 10.302 1.48589L6.58008 5.21048L13.7664 12.4019L17.1152 9.05062L17.4883 8.67727C18.4392 7.72254 18.9732 6.42954 18.9732 5.08158C18.9732 3.73362 18.4392 2.44062 17.4883 1.48589Z" fill="#1A6EFC"/>
</svg>
