<svg width="99" height="32" viewBox="0 0 99 32" fill="none" xmlns="http://www.w3.org/2000/svg">
<path d="M16.6623 16.2463C17.1029 16.6857 17.4525 17.2076 17.6911 17.7823C17.9296 18.357 18.0524 18.9731 18.0524 19.5953C18.0524 20.2175 17.9296 20.8336 17.6911 21.4083C17.4525 21.983 17.1029 22.505 16.6623 22.9443L9.10653 30.5C8.15409 31.4572 6.86042 31.9968 5.51013 32.0001C4.15983 32.0035 2.86352 31.4702 1.90636 30.5178C0.9492 29.5654 0.4096 28.2717 0.406266 26.9214C0.402931 25.5711 0.936136 24.2748 1.88858 23.3176L12.8044 12.4062L16.6623 16.2463Z" fill="white"/>
<path d="M27.1783 20.7485C28.5798 21.8503 30.2872 22.4929 32.0673 22.5886C33.4007 22.5886 33.9341 22.1441 33.9341 21.553C33.9341 20.8374 32.9874 20.5796 31.5473 20.3485C29.1917 19.9441 25.8583 19.4596 25.8583 15.904C25.8583 13.4595 27.9561 11.335 31.8051 11.335C33.8873 11.3142 35.922 11.9571 37.6141 13.1706L35.9163 16.104C34.7844 15.1209 33.3355 14.5795 31.8362 14.5795C30.8006 14.5795 30.0584 14.9262 30.0584 15.5306C30.0584 16.1351 30.8051 16.3929 32.2807 16.6506C34.6407 17.0551 38.1475 17.6284 38.1475 21.3085C38.1475 23.953 35.8185 25.9042 31.8229 25.9042C29.3517 25.9042 26.7917 25.0731 25.325 23.7797L27.1783 20.7485Z" fill="white"/>
<path d="M45.7476 20.6639L44.4143 22.2461V25.5796H39.9697V6.40576H44.4143V17.2416L48.6633 11.6948H53.9967L48.8811 18.0194L54.259 25.5751H48.7966L45.7476 20.6639Z" fill="white"/>
<path d="M61.2991 11.3525C65.4103 11.3525 68.4104 14.3704 68.4104 19.0816V20.0327H58.5123C58.7701 21.3261 59.979 22.5039 62.068 22.5039C63.2983 22.5015 64.4922 22.0868 65.4592 21.3261L67.3303 24.0995C65.9525 25.3351 63.6502 25.9351 61.5257 25.9351C57.2412 25.9351 53.9344 23.1484 53.9344 18.6372C53.9122 14.5971 56.9612 11.3525 61.2991 11.3525ZM58.4412 17.1571H64.1747C64.0591 16.1793 63.3436 14.7704 61.2991 14.7704C60.61 14.7367 59.9335 14.9634 59.404 15.4056C58.8745 15.8478 58.5308 16.4731 58.4412 17.1571Z" fill="white"/>
<path d="M70.157 6.40576H74.6015V25.5796H70.157V6.40576Z" fill="white"/>
<path d="M77.3706 6.40576H81.8152V25.5796H77.3706V6.40576Z" fill="white"/>
<path d="M83.6641 18.6238C83.6641 14.7126 86.513 11.3525 91.2198 11.3525C95.9266 11.3525 98.8111 14.7126 98.8111 18.6238C98.8111 22.535 95.9977 25.9218 91.2242 25.9218C86.4508 25.9218 83.6641 22.5306 83.6641 18.6238ZM94.2732 18.6238C94.2732 16.7838 93.1798 15.2593 91.2242 15.2593C89.2686 15.2593 88.2197 16.7838 88.2197 18.6238C88.2197 20.4639 89.282 22.015 91.2065 22.015C93.131 22.015 94.2732 20.4905 94.2732 18.6238Z" fill="white"/>
<path d="M5.61324 5.21045L1.38647 9.43277C0.498693 10.3212 0 11.5258 0 12.7817C0 14.0377 0.498693 15.2423 1.38647 16.1307L5.23101 19.9708L16.1424 9.06388L12.7912 12.4151L5.61324 5.21045Z" fill="white"/>
<path d="M16.5291 1.48587C15.5744 0.534314 14.2814 0 12.9335 0C11.5855 0 10.2925 0.534314 9.33782 1.48587L5.61328 5.21041L12.8046 12.4017L16.1558 9.0505L16.5291 8.67716C17.4807 7.72244 18.015 6.42946 18.015 5.08152C18.015 3.73357 17.4807 2.44059 16.5291 1.48587Z" fill="white"/>
</svg>
