<svg width="14" height="24" viewBox="0 0 14 24" fill="none" xmlns="http://www.w3.org/2000/svg">
<path d="M12.4967 12.1846C12.8272 12.5141 13.0894 12.9056 13.2683 13.3366C13.4472 13.7676 13.5393 14.2297 13.5393 14.6964C13.5393 15.163 13.4472 15.6251 13.2683 16.0561C13.0894 16.4871 12.8272 16.8786 12.4967 17.2081L6.8299 22.8749C6.11557 23.5928 5.14532 23.9975 4.1326 24C3.11988 24.0025 2.14764 23.6026 1.42977 22.8882C0.7119 22.1739 0.3072 21.2036 0.304699 20.1909C0.302199 19.1782 0.702102 18.206 1.41644 17.4881L9.6033 9.30457L12.4967 12.1846Z" fill="#2E26F1"/>
<path d="M4.20993 3.90784L1.03985 7.07458C0.37402 7.7409 0 8.64433 0 9.58631C0 10.5283 0.37402 11.4317 1.03985 12.098L3.92325 14.9781L12.1068 6.79791L9.59339 9.3113L4.20993 3.90784Z" fill="#459FFF"/>
<path d="M12.3958 1.1144C11.6798 0.400735 10.7101 0 9.69912 0C8.68816 0 7.71842 0.400735 7.00239 1.1144L4.20898 3.90781L9.60245 9.30127L12.1158 6.78787L12.3958 6.50787C13.1095 5.79183 13.5103 4.82209 13.5103 3.81114C13.5103 2.80018 13.1095 1.83044 12.3958 1.1144Z" fill="#1A6EFC"/>
</svg>
